<?xml version="1.0" standalone="no"?>
<!DOCTYPE svg PUBLIC "-//W3C//DTD SVG 20010904//EN"
 "http://www.w3.org/TR/2001/REC-SVG-20010904/DTD/svg10.dtd">
<svg version="1.0" xmlns="http://www.w3.org/2000/svg"
 width="480.000000pt" height="480.000000pt" viewBox="0 0 480.000000 480.000000"
 preserveAspectRatio="xMidYMid meet">
<metadata>
Created by potrace 1.14, written by Peter Selinger 2001-2017
</metadata>
<g transform="translate(0.000000,480.000000) scale(0.100000,-0.100000)"
fill="#000000" stroke="none">
<path d="M1875 4330 c-92 -20 -185 -99 -329 -280 -186 -231 -474 -654 -807
-1180 -214 -339 -205 -323 -237 -390 -94 -197 54 -374 258 -309 19 7 129 59
244 116 114 57 210 102 212 100 2 -2 -25 -93 -60 -203 -36 -109 -101 -314
-146 -454 -136 -423 -260 -788 -311 -915 -73 -185 -121 -352 -117 -405 12
-127 152 -211 267 -160 59 27 97 73 124 153 63 181 118 330 142 383 l26 57 32
-29 c18 -16 95 -93 172 -170 77 -78 158 -153 180 -166 142 -87 300 -43 440
123 37 43 150 211 240 354 85 136 240 370 297 449 l28 39 1 -154 c0 -85 2
-161 3 -169 2 -8 6 -41 10 -74 6 -57 42 -158 58 -164 4 -2 8 -10 8 -17 0 -14
57 -63 98 -84 124 -65 274 0 466 201 54 56 223 254 375 438 225 273 412 496
476 566 5 6 35 40 67 75 31 35 75 84 98 109 89 95 112 162 83 245 -25 73 -88
121 -172 129 -83 8 -144 -41 -356 -284 -26 -30 -61 -70 -76 -87 -35 -40 -327
-390 -540 -648 -87 -105 -169 -201 -183 -214 l-26 -24 -1 149 c-1 257 -15 369
-59 454 -63 123 -205 169 -332 107 -90 -44 -186 -150 -388 -427 -30 -42 -160
-240 -216 -328 -21 -35 -85 -134 -141 -220 l-103 -157 -169 164 -169 165 38
57 c38 54 212 273 235 294 6 6 38 42 71 80 32 39 66 77 74 85 9 8 53 60 99
115 46 55 92 110 102 123 44 51 64 105 64 169 0 52 -5 68 -30 104 -39 55 -95
84 -160 83 -70 -1 -117 -29 -214 -125 -46 -45 -81 -74 -77 -63 3 10 38 118 77
239 39 121 76 235 82 254 11 33 23 40 212 132 205 99 258 124 405 189 213 95
522 245 617 300 79 45 106 92 106 180 0 101 -76 179 -180 185 -53 2 -65 -2
-242 -90 -102 -51 -217 -107 -255 -124 -38 -18 -101 -47 -140 -65 -180 -84
-327 -149 -330 -145 -2 2 19 72 46 154 177 537 225 775 174 873 -51 99 -148
152 -241 132z m103 -140 c28 -27 42 -83 36 -145 -13 -120 -125 -512 -267 -927
-56 -165 -61 -185 -43 -178 12 5 89 41 171 80 83 39 249 117 370 172 121 55
300 140 397 189 97 49 189 91 203 93 30 6 74 -28 79 -59 8 -49 -18 -68 -226
-172 -112 -56 -273 -133 -358 -171 -232 -105 -262 -118 -430 -199 -85 -41
-184 -89 -220 -105 -36 -17 -66 -32 -68 -33 -6 -5 -345 -1042 -397 -1215 -4
-14 17 9 46 50 146 207 353 451 477 563 40 36 60 47 85 47 43 -1 67 -21 73
-62 6 -31 -1 -43 -73 -134 -44 -54 -131 -157 -194 -229 -252 -286 -394 -470
-420 -543 -14 -42 3 -72 87 -152 38 -36 135 -131 215 -212 81 -82 151 -148
157 -148 12 0 88 82 133 145 20 28 101 151 179 275 436 687 603 861 728 760
61 -50 78 -153 81 -498 2 -203 11 -335 25 -349 8 -8 123 96 196 178 90 99 169
194 390 464 145 177 265 320 280 335 3 3 18 21 34 40 16 19 56 66 90 104 33
38 68 77 76 87 90 103 166 180 183 186 45 14 82 -2 98 -45 13 -33 -5 -60 -108
-173 -48 -53 -128 -143 -178 -200 -49 -57 -93 -106 -96 -109 -3 -3 -115 -138
-249 -300 -326 -397 -319 -388 -370 -445 -73 -82 -182 -190 -223 -220 -57 -42
-132 -65 -171 -53 -100 34 -124 130 -126 502 -1 236 -6 335 -20 350 -20 21
-196 -205 -388 -499 -70 -107 -169 -259 -219 -338 -156 -242 -236 -327 -322
-342 -72 -12 -108 14 -355 258 -126 124 -232 224 -236 222 -21 -13 -149 -299
-205 -460 -37 -104 -74 -198 -82 -207 -38 -42 -123 -8 -123 48 0 38 54 207
111 351 54 135 189 535 329 973 50 157 135 421 189 588 54 166 96 302 93 302
-3 0 -157 -76 -342 -170 -185 -93 -355 -173 -377 -178 -66 -15 -113 21 -113
85 0 37 56 134 276 479 498 780 826 1233 968 1336 48 35 111 38 144 8z"/>
<path d="M1807 3947 c-96 -113 -277 -364 -466 -647 -294 -441 -516 -788 -510
-795 3 -2 153 72 334 164 l330 168 116 344 c137 409 259 819 244 819 -1 0 -23
-24 -48 -53z m-328 -785 l-80 -237 -119 -61 -120 -61 22 36 c40 66 368 561
372 561 3 0 -31 -107 -75 -238z"/>
</g>
</svg>
